<mxfile modified="2021-07-14T07:13:09.709Z" host="app.diagrams.net" agent="5.0 (Macintosh; Intel Mac OS X 10_15_7) AppleWebKit/537.36 (KHTML, like Gecko) Chrome/91.0.4472.114 Safari/537.36" etag="wlU-2T5LDdt-XAzXjUIl" version="14.8.0" type="github">
  <diagram name="Page-1" id="97a40813-6b03-0c74-37c1-0168de264b11">
    <mxGraphModel dx="815" dy="1581" grid="1" gridSize="10" guides="1" tooltips="1" connect="1" arrows="1" fold="1" page="1" pageScale="1" pageWidth="827" pageHeight="1169" background="#ffffff" math="0" shadow="0">
      <root>
        <mxCell id="0" />
        <mxCell id="1" parent="0" />
        <mxCell id="IcHQME0wc7mABGmGH1MC-45" value="" style="whiteSpace=wrap;html=1;fillColor=none;sketch=1;" vertex="1" parent="1">
          <mxGeometry x="80" y="-930" width="140" height="180" as="geometry" />
        </mxCell>
        <mxCell id="IcHQME0wc7mABGmGH1MC-46" value="View V1" style="whiteSpace=wrap;html=1;fontColor=#333333;fillStyle=solid;fontStyle=1;fillColor=#B3FF66;strokeColor=#66FF66;sketch=1;" vertex="1" parent="1">
          <mxGeometry x="90" y="-830" width="120" height="60" as="geometry" />
        </mxCell>
        <mxCell id="IcHQME0wc7mABGmGH1MC-47" value="" style="whiteSpace=wrap;html=1;fillColor=none;sketch=1;" vertex="1" parent="1">
          <mxGeometry x="670" y="-750" width="140" height="180" as="geometry" />
        </mxCell>
        <mxCell id="IcHQME0wc7mABGmGH1MC-48" value="View V2" style="whiteSpace=wrap;html=1;fontColor=#333333;fillStyle=solid;fontStyle=1;strokeColor=#6666FF;fillColor=#CCCCFF;sketch=1;" vertex="1" parent="1">
          <mxGeometry x="680" y="-650" width="120" height="60" as="geometry" />
        </mxCell>
        <mxCell id="IcHQME0wc7mABGmGH1MC-49" value="Model M1" style="whiteSpace=wrap;html=1;fillColor=#f8cecc;strokeColor=#b85450;fillStyle=zigzag;fontColor=#990000;fontStyle=1;sketch=1;" vertex="1" parent="1">
          <mxGeometry x="90" y="-910" width="120" height="60" as="geometry" />
        </mxCell>
        <mxCell id="IcHQME0wc7mABGmGH1MC-50" style="orthogonalLoop=1;jettySize=auto;html=1;fontColor=#990000;startArrow=none;startFill=0;endArrow=classic;endFill=1;flowAnimation=1;exitX=0.13;exitY=0.77;exitDx=0;exitDy=0;exitPerimeter=0;entryX=1;entryY=0.5;entryDx=0;entryDy=0;sketch=1;" edge="1" parent="1" source="IcHQME0wc7mABGmGH1MC-57">
          <mxGeometry relative="1" as="geometry">
            <mxPoint x="360.20399999999995" y="-820.95" as="sourcePoint" />
            <mxPoint x="210" y="-803" as="targetPoint" />
          </mxGeometry>
        </mxCell>
        <mxCell id="IcHQME0wc7mABGmGH1MC-51" value="Client C1" style="text;html=1;strokeColor=none;fillColor=none;align=center;verticalAlign=middle;whiteSpace=wrap;fontStyle=1;sketch=1;" vertex="1" parent="1">
          <mxGeometry x="115" y="-750" width="70" height="20" as="geometry" />
        </mxCell>
        <mxCell id="IcHQME0wc7mABGmGH1MC-52" value="Session XYZ" style="text;html=1;align=center;verticalAlign=middle;whiteSpace=wrap;fontSize=14;fontStyle=1;sketch=0;fillColor=#ffffff;" vertex="1" parent="1">
          <mxGeometry x="120" y="-940" width="90" height="20" as="geometry" />
        </mxCell>
        <mxCell id="IcHQME0wc7mABGmGH1MC-53" value="" style="outlineConnect=0;dashed=0;verticalLabelPosition=bottom;verticalAlign=top;align=center;html=1;fontSize=12;fontStyle=0;aspect=fixed;pointerEvents=1;shape=mxgraph.aws4.user;fillColor=#333333;strokeWidth=1;sketch=1;" vertex="1" parent="1">
          <mxGeometry x="131" y="-730" width="38" height="38" as="geometry" />
        </mxCell>
        <mxCell id="IcHQME0wc7mABGmGH1MC-54" style="edgeStyle=none;orthogonalLoop=1;jettySize=auto;html=1;entryX=1;entryY=1;entryDx=0;entryDy=0;fontSize=12;fontColor=#000000;startArrow=classic;startFill=1;flowAnimation=0;exitX=1;exitY=0.5;exitDx=0;exitDy=0;labelBorderColor=#000000;strokeColor=#B3B3B3;sketch=1;" edge="1" parent="1" source="IcHQME0wc7mABGmGH1MC-49" target="IcHQME0wc7mABGmGH1MC-59">
          <mxGeometry relative="1" as="geometry">
            <mxPoint x="240" y="-950" as="sourcePoint" />
          </mxGeometry>
        </mxCell>
        <mxCell id="IcHQME0wc7mABGmGH1MC-55" style="edgeStyle=none;orthogonalLoop=1;jettySize=auto;html=1;entryX=0.8;entryY=0.8;entryDx=0;entryDy=0;fontSize=12;fontColor=#000000;startArrow=classic;startFill=1;flowAnimation=0;entryPerimeter=0;exitX=0;exitY=0.5;exitDx=0;exitDy=0;labelBorderColor=#000000;strokeColor=#B3B3B3;sketch=1;" edge="1" parent="1" source="IcHQME0wc7mABGmGH1MC-60" target="IcHQME0wc7mABGmGH1MC-57">
          <mxGeometry relative="1" as="geometry">
            <mxPoint x="680" y="-800" as="sourcePoint" />
          </mxGeometry>
        </mxCell>
        <mxCell id="IcHQME0wc7mABGmGH1MC-56" style="edgeStyle=none;orthogonalLoop=1;jettySize=auto;html=1;fontSize=12;fontColor=#000000;startArrow=classic;startFill=1;flowAnimation=0;exitX=0;exitY=0.5;exitDx=0;exitDy=0;entryX=0.359;entryY=0.108;entryDx=0;entryDy=0;entryPerimeter=0;labelBorderColor=#000000;strokeColor=#B3B3B3;sketch=1;" edge="1" parent="1" source="IcHQME0wc7mABGmGH1MC-68" target="IcHQME0wc7mABGmGH1MC-57">
          <mxGeometry relative="1" as="geometry">
            <mxPoint x="584" y="-1089" as="sourcePoint" />
            <mxPoint x="434.4000000000001" y="-907" as="targetPoint" />
          </mxGeometry>
        </mxCell>
        <mxCell id="IcHQME0wc7mABGmGH1MC-57" value="Reflector" style="ellipse;shape=cloud;whiteSpace=wrap;html=1;fontSize=21;strokeColor=#6c8ebf;fillColor=#CCFFFF;fontColor=#0066CC;sketch=1;" vertex="1" parent="1">
          <mxGeometry x="310" y="-920" width="326" height="130" as="geometry" />
        </mxCell>
        <mxCell id="IcHQME0wc7mABGmGH1MC-58" value="publish(&quot;rollDice&quot;)" style="text;html=1;strokeColor=none;fillColor=none;align=center;verticalAlign=middle;whiteSpace=wrap;fontSize=12;rotation=354.5;fontColor=#CCCCCC;sketch=1;" vertex="1" parent="1">
          <mxGeometry x="230" y="-814" width="106" height="20" as="geometry" />
        </mxCell>
        <mxCell id="IcHQME0wc7mABGmGH1MC-59" value="subscribe(&quot;rollDice&quot;)" style="text;html=1;strokeColor=none;fillColor=none;align=center;verticalAlign=middle;whiteSpace=wrap;fontSize=12;rotation=6;fontColor=#CCCCCC;sketch=1;" vertex="1" parent="1">
          <mxGeometry x="230" y="-893" width="106" height="20" as="geometry" />
        </mxCell>
        <mxCell id="IcHQME0wc7mABGmGH1MC-60" value="Model M1" style="whiteSpace=wrap;html=1;fillColor=#f8cecc;strokeColor=#b85450;fillStyle=zigzag;fontColor=#990000;fontStyle=1;sketch=1;" vertex="1" parent="1">
          <mxGeometry x="680" y="-730" width="120" height="60" as="geometry" />
        </mxCell>
        <mxCell id="IcHQME0wc7mABGmGH1MC-61" style="edgeStyle=none;orthogonalLoop=1;jettySize=auto;html=1;fontSize=12;fontColor=#000000;startArrow=none;startFill=0;endArrow=classic;endFill=1;flowAnimation=1;sketch=1;" edge="1" parent="1">
          <mxGeometry relative="1" as="geometry">
            <mxPoint x="489" y="-796" as="sourcePoint" />
            <mxPoint x="681" y="-617" as="targetPoint" />
          </mxGeometry>
        </mxCell>
        <mxCell id="IcHQME0wc7mABGmGH1MC-62" value="Client C2" style="text;html=1;strokeColor=none;fillColor=none;align=center;verticalAlign=middle;whiteSpace=wrap;fontStyle=1;sketch=1;" vertex="1" parent="1">
          <mxGeometry x="705" y="-570" width="70" height="20" as="geometry" />
        </mxCell>
        <mxCell id="IcHQME0wc7mABGmGH1MC-63" value="Session XYZ" style="text;html=1;align=center;verticalAlign=middle;whiteSpace=wrap;fontSize=14;fillColor=#ffffff;fontStyle=1;sketch=0;" vertex="1" parent="1">
          <mxGeometry x="710" y="-760" width="90" height="20" as="geometry" />
        </mxCell>
        <mxCell id="IcHQME0wc7mABGmGH1MC-64" value="" style="outlineConnect=0;dashed=0;verticalLabelPosition=bottom;verticalAlign=top;align=center;html=1;fontSize=12;fontStyle=0;aspect=fixed;pointerEvents=1;shape=mxgraph.aws4.user;fillColor=#333333;strokeWidth=1;sketch=1;" vertex="1" parent="1">
          <mxGeometry x="721" y="-550" width="38" height="38" as="geometry" />
        </mxCell>
        <mxCell id="IcHQME0wc7mABGmGH1MC-65" value="publish(&quot;rollDice&quot;)" style="text;html=1;strokeColor=none;fillColor=none;align=center;verticalAlign=middle;whiteSpace=wrap;fontSize=12;rotation=43;fontColor=#CCCCCC;sketch=1;" vertex="1" parent="1">
          <mxGeometry x="514" y="-721" width="106" height="20" as="geometry" />
        </mxCell>
        <mxCell id="IcHQME0wc7mABGmGH1MC-66" value="subscribe(&quot;rollDice&quot;)" style="text;html=1;strokeColor=none;fillColor=none;align=center;verticalAlign=middle;whiteSpace=wrap;fontSize=12;rotation=46.5;fontColor=#CCCCCC;sketch=1;" vertex="1" parent="1">
          <mxGeometry x="580" y="-775" width="106" height="20" as="geometry" />
        </mxCell>
        <mxCell id="IcHQME0wc7mABGmGH1MC-67" value="" style="whiteSpace=wrap;html=1;fillColor=none;sketch=1;" vertex="1" parent="1">
          <mxGeometry x="580" y="-1139" width="140" height="180" as="geometry" />
        </mxCell>
        <mxCell id="IcHQME0wc7mABGmGH1MC-68" value="Model M1" style="whiteSpace=wrap;html=1;fillColor=#f8cecc;strokeColor=#b85450;fillStyle=zigzag;fontColor=#990000;fontStyle=1;sketch=1;" vertex="1" parent="1">
          <mxGeometry x="590" y="-1119" width="120" height="60" as="geometry" />
        </mxCell>
        <mxCell id="IcHQME0wc7mABGmGH1MC-69" style="edgeStyle=none;orthogonalLoop=1;jettySize=auto;html=1;fontSize=12;fontColor=#000000;exitX=0.625;exitY=0.2;exitDx=0;exitDy=0;startArrow=none;startFill=0;flowAnimation=1;endArrow=classic;endFill=1;exitPerimeter=0;entryX=0;entryY=0.5;entryDx=0;entryDy=0;sketch=1;" edge="1" parent="1" source="IcHQME0wc7mABGmGH1MC-57" target="IcHQME0wc7mABGmGH1MC-70">
          <mxGeometry relative="1" as="geometry">
            <mxPoint x="514" y="-960" as="targetPoint" />
          </mxGeometry>
        </mxCell>
        <mxCell id="IcHQME0wc7mABGmGH1MC-70" value="View V3" style="whiteSpace=wrap;html=1;fontColor=#333333;fillStyle=solid;fontStyle=1;strokeColor=#CC0066;fillColor=#FFCCE6;sketch=1;" vertex="1" parent="1">
          <mxGeometry x="590" y="-1039" width="120" height="60" as="geometry" />
        </mxCell>
        <mxCell id="IcHQME0wc7mABGmGH1MC-71" value="Client C3" style="text;html=1;strokeColor=none;fillColor=none;align=center;verticalAlign=middle;whiteSpace=wrap;fontStyle=1;sketch=1;" vertex="1" parent="1">
          <mxGeometry x="615" y="-959" width="70" height="20" as="geometry" />
        </mxCell>
        <mxCell id="IcHQME0wc7mABGmGH1MC-72" value="Session XYZ" style="text;html=1;align=center;verticalAlign=middle;whiteSpace=wrap;fontSize=14;fillColor=#ffffff;fontStyle=1;sketch=0;" vertex="1" parent="1">
          <mxGeometry x="620" y="-1149" width="90" height="20" as="geometry" />
        </mxCell>
        <mxCell id="IcHQME0wc7mABGmGH1MC-73" value="" style="outlineConnect=0;dashed=0;verticalLabelPosition=bottom;verticalAlign=top;align=center;html=1;fontSize=12;fontStyle=0;aspect=fixed;pointerEvents=1;shape=mxgraph.aws4.user;fillColor=#333333;strokeWidth=1;sketch=1;" vertex="1" parent="1">
          <mxGeometry x="631" y="-939" width="38" height="38" as="geometry" />
        </mxCell>
        <mxCell id="IcHQME0wc7mABGmGH1MC-74" value="publish(&quot;rollDice&quot;)" style="text;html=1;strokeColor=none;align=center;verticalAlign=middle;whiteSpace=wrap;fontSize=12;rotation=304;fontColor=#CCCCCC;sketch=1;" vertex="1" parent="1">
          <mxGeometry x="503" y="-950" width="106" height="20" as="geometry" />
        </mxCell>
        <mxCell id="IcHQME0wc7mABGmGH1MC-75" value="subscribe(&quot;rollDice&quot;)" style="text;html=1;strokeColor=none;fillColor=none;align=center;verticalAlign=middle;whiteSpace=wrap;fontSize=12;rotation=312;fontColor=#CCCCCC;sketch=1;" vertex="1" parent="1">
          <mxGeometry x="440" y="-1006" width="106" height="20" as="geometry" />
        </mxCell>
        <mxCell id="IcHQME0wc7mABGmGH1MC-76" value="subscribe(&quot;showDice&quot;)" style="text;html=1;strokeColor=none;fillColor=none;align=center;verticalAlign=middle;whiteSpace=wrap;fontSize=12;rotation=354.5;sketch=1;" vertex="1" parent="1">
          <mxGeometry x="230" y="-833" width="106" height="20" as="geometry" />
        </mxCell>
        <mxCell id="IcHQME0wc7mABGmGH1MC-77" value="publish(&quot;showDice&quot;)" style="text;html=1;strokeColor=none;fillColor=none;align=center;verticalAlign=middle;whiteSpace=wrap;fontSize=12;rotation=5.5;fontColor=#CCCCCC;sketch=1;" vertex="1" parent="1">
          <mxGeometry x="225" y="-873" width="106" height="20" as="geometry" />
        </mxCell>
        <mxCell id="IcHQME0wc7mABGmGH1MC-78" value="publish(&quot;showDice&quot;)" style="text;html=1;strokeColor=none;fillColor=none;align=center;verticalAlign=middle;whiteSpace=wrap;fontSize=12;rotation=311;fontColor=#CCCCCC;sketch=1;" vertex="1" parent="1">
          <mxGeometry x="461" y="-999" width="106" height="20" as="geometry" />
        </mxCell>
        <mxCell id="IcHQME0wc7mABGmGH1MC-79" value="publish(&quot;showDice&quot;)" style="text;html=1;strokeColor=none;fillColor=none;align=center;verticalAlign=middle;whiteSpace=wrap;fontSize=12;rotation=46.5;fontColor=#CCCCCC;sketch=1;" vertex="1" parent="1">
          <mxGeometry x="563" y="-763" width="106" height="20" as="geometry" />
        </mxCell>
        <mxCell id="IcHQME0wc7mABGmGH1MC-80" style="edgeStyle=none;orthogonalLoop=1;jettySize=auto;html=1;exitX=0.5;exitY=1;exitDx=0;exitDy=0;fontSize=12;fontColor=#000000;sketch=1;" edge="1" parent="1" source="IcHQME0wc7mABGmGH1MC-79" target="IcHQME0wc7mABGmGH1MC-79">
          <mxGeometry relative="1" as="geometry" />
        </mxCell>
        <mxCell id="IcHQME0wc7mABGmGH1MC-81" value="subscribe(&quot;showDice&quot;)" style="text;html=1;strokeColor=none;fillColor=none;align=center;verticalAlign=middle;whiteSpace=wrap;fontSize=12;rotation=43;sketch=1;" vertex="1" parent="1">
          <mxGeometry x="525" y="-738" width="106" height="20" as="geometry" />
        </mxCell>
        <mxCell id="IcHQME0wc7mABGmGH1MC-82" value="subscribe(&quot;showDice&quot;)" style="text;html=1;strokeColor=none;fillColor=none;align=center;verticalAlign=middle;whiteSpace=wrap;fontSize=12;rotation=303;sketch=1;" vertex="1" parent="1">
          <mxGeometry x="490" y="-966" width="106" height="20" as="geometry" />
        </mxCell>
        <mxCell id="IcHQME0wc7mABGmGH1MC-83" value="" style="shape=image;verticalLabelPosition=bottom;labelBackgroundColor=#ffffff;verticalAlign=top;aspect=fixed;imageAspect=0;image=data:image/png,iVBORw0KGgoAAAANSUhEUgAAAPwAAAD8CAYAAABTq8lnAAAN1UlEQVR4Ae2dwaocRRSG8ywJ2Qm+ik/ga8SFYPY+QOAqCEHXbly5j8FFVsEbULIJiYQEg6gbXWTkTyhp2p6Z6pmpqtPn/y4MPdO3uqumzvnOf6a7uurGDf7oAXrAqwce37t5l5dfHzz54uZn2N3L7u8im4x+fXVrx4s+wAdy+wDAE+gI9EY+APBGxka9c6t3jX0BHuBReCMfAHgjY9coAGVyZwEAD/AovJEPALyRsVHv3OpdY1+AB3gU3sgHAN7I2DUKQJncWQDAAzwKb+QDAG9kbNQ7t3rX2Pck4F89+GTHiz7AB+L4QA3sKnMy8Lvfn+940Qf4wHgfUOAFeAISAdnEBwDexNCo63h1jWADgAd41N3IBwDeyNgRFIY2jM00AB7gUXgjHwB4I2OjrmPVNUL/AzzAo/BGPgDwRsaOoDC0YWyWAfAAj8Ib+QDAGxkbdR2rrhH6H+ABHoU38gGANzJ2BIWhDWOzDIAHeBTeyAcA3sjYqOtYdY3Q/wAP8Ci8kQ8AvJGxIygMbRibZQA8wKPwRj4A8EbGRl3HqmuE/gd4gEfhjXwA4I2MHUFhaMPYLAPgAR6FN/IBgDcyNuo6Vl0j9D/AAzwKb+QDAG9k7AgKQxvGZhkAD/AovJEPALyRsVHXseoaof8BHuBReCMfAHgjY0dQGNowNssAeIBH4Y18AOCNjI26jlXXCP0P8ACPwhv5AMAbGTuCwtCGsVkGwAM8Cm/kAwBvZGzUday6Ruh/gAd4FL7SB/7+9cfdn0++2b159Pnu9cNPd68e3Hm31Wft1/8jQH2oDQBfaexDncj/8irnHz99tXvx/ce7X77+cHd9devoS+VUXsdF9AuAB/iQjjkSlre/Pd29/uHTasj3BQLBr/O8ffM0TB8DPMCHccaRkJe6lZ7/fP+Do0q+D/Kl/TqfzlvqGLkFeIAP4YgjIVDd/7x8tHv23UcXBX0Ov86vekZ+V4AH+KEOONL5S91//fLt2en7HO59n5Xmq75Sd+8twAP8MOfr7exL9enq+pMvbzdV9jn8qk/1LrWn9T6AB/ghjtfasWvOL6XtDXuBX/WOUHqAB3hL4PVbuvZWW4H00lvV3/s3PcADvCXwrS/Q1QYHtaMmG7lUGYAH+K4OdynHPec8ukVWC2SPcj1v2QE8wFsBr0Ewl77Pfm5QUHs02OecIFZ7LMADfBdHq3XI1uU08u1cQFscr3a1/u46P8ADfBdH6+HMNXWMvlC3L1ioXTXtP7cMwAN8F0c711EvcbweaNkHXIT9PR64AXiAtwFeT7FFAHtfG9S+SwS2Q+cAeIBv7mSHHLDn/6Km8yUA9EjrAR7gLYDX5BQFrMjb1pNoADzAWwCvseuRQS9taz3GHuAB3gL4aINtCuDzbetBOAAP8BbAaw66OVwRP6udLa9rADzAN3Wwls675tyacDIi4PM2qZ1rvtfasgAP8E0dbK1DtiqPwr+faBTgAd4CeH7DA7yFo7dSzK2dl6v0AA/wRtkN9+EBHuCNgFdGwkg7npYDeiPoGUsP8ABvBDxPywE8wBsBHzmt7/HgjL4/t+XMHH5rV9cv3V5mvPmkegDSDf09vnfz7nx00KHPiiiXNhrne3/FlX5Y3w+aOy7knHadFpxE4VF4u4AcbRBO6wdmpsIA8ABvB7wAYF7642vdk9ITHNIEB1aeAfg0zjxN4Xi//3c+a8sdhh6FR+HTBUWNse+9oCSrxwJSOpC2lFlI6XsNu1U9I1aNLfbgoh3BhmDz+/N3q7i2vpCn8/deLbaAXrYAD/AAP/EB3SK79H16na/nrbcC99IW4CfGXuog9u2/6JW1b7TgpEbknZvm63idp9dCkTX2AHiAR+EP+IAeuNFTdrXwq5zK91g2qgbweRmAP2DseWfx2U/tpzbXJBq6qq/0XHPkacJJbfVZ+1svIjFty6nvAR7gUXgjHwB4I2OfqgoclyezAXiAR+GNfADgjYyNUudR6lNtCfAAj8Ib+QDAGxn7VFXguDyZAcADPApv5AMAb2RslDqPUp9qS4AHeBTeyAcA3sjYp6oCx+XJDAAe4FF4Ix8AeCNjo9R5lPpUWwI8wKPwRj4A8EbGPlUVOC5PZgDwAL+o8BkeBSVQ/T9QATzA/wd8tskeAB7g/3NunOG9M2j6pYtO59RpjTTs93+Ya/oEhTdW+OwTNtYA4FYG4A2B11TJDlMyu8Fc830B3gx4p0UXagBwKwPwRsC7LavkBnPN9wV4E+AdF06sAcCtDMAbAO+6NLIbzDXfF+ANgG99ge766vCyw+X/akeNU1LmtFtuNf0G8MmB1623AlyErdpT45iUaQM9wCcGXmukXXphxHODhtoTaa01t8AC8ImB1wi6cwFtcbza5QZalO8L8ImBr10AsQXUh86pdkUBwK0dAJ8UeD0Icwi60f+Lurpq9gAA8EmB15LFo6E+VL/alx2uiN8P4JMCHzWdL0GAtL7NVfhjQQbgEwKvySsKWJG3W1hP/RhAW/s/wCcEXmPmI4Ne2qZ2bg2YrbcX4BMCH22wTQF8vmUQTv+0HuATAv/6Ycz773Pg1c6tK+bW2g/wCYF/9eDOJlJ6tXNrwGy9vQCfEHgUvn+qvJVAAPAJgec3PMDvC0AAnxB4rtIDPMAnBHufUbkPD/D7fAOFTxoIGGkH9EvQA3xS4BlLD/AAnxTuJcPytBzAL/kFCp84CERN63lwZlwwAvjEwDPjzTiwltQ1wj6ATwy85o4LOacdC04OG2EI8ImBl6JEG4TDAzNjsw6ATw68oGde+rGQRUjlSxsA3gB4Vp4BeIA3AL0YWVvWlgN6+QEKbwQ+q8cCPcAbAV+Uvtf9edWjzGKaafB+bNABeDPgBZx+07e+kKfzqx4AHwv4vP8B3hD44gS6RXbp+/Q6H7feYkFe7K0twBsDLwfQgpMakXdumq/jdR4WiowLO8Cbwz6N/HqvB270lF0t/Cqn8iwbFRvyqZ1ReKBf/J2tSTR0VV/puebI04ST2uqz9rOIxHYgB3ggX4R86hi83ybQx+yGwgM/8Bv5AMAbGftY9Of/OVV9aleAB3gU3sgHAN7I2NNIz/v8ar5kY4AHeBTeyAcA3sjYSxGffV5KD/AAj8Ib+QDAGxkbNfdS8yV7AzzAo/BGPgDwRsZeivjs81J9gAd4FN7IBwDeyNiouZeaL9kb4AEehTfyAYA3MvZSxGefl+oDPMCj8EY+APBGxkbNvdR8yd4AD/AovJEPALyRsZciPvu8VB/gAR6FN/IBgK80NpM6eilh1swH4A8Az7TNQJ4NfICfAa+FFC66MMObp6TMsz7OBtGWvg/AT5yRpZdQ9C3Be0pbAZ7FFclAJkH/FIi2dIw98FrOuHZppeurW7tzXqqH5ZPJIkYGCGvgtWTSky9vnwXx2gCg+lTvSKNTt2/QsQVeStsb9hIcVC9K7wvdyIBrCfw/Lx91S+ML5POt0nu1Y6Txqdsv6FgC/+y7j7qm8XPYy2e1A+j8oBtpczvgdeutABdhq/aMdADq9go4VsC/ffN09/P9D0IBr/ZosA/geYE3yt5WwGsEXQRVn7dB7RrlANTrFWisgO91v30O9LHPahfgeYE3yt42wOtBmGPgjfy/2jfKCajXJ9jYAP/i+49DA6/2AZ4PeKNsbQN81HS+ZBWk9cDeIwhYAK/JKwpYkbdqZw+jU4dvcLEAXmPXI4Ne2sYYe18QewVhC+CjDbYpgM+3DMIB+NbgWwD/+mHM++9z4NXO1gbn/N5BxQL4Vw/ubCKlVzsB0hvI1va3AB6FB6LWIG3l/BbA8xse4LcCZOt2WgDPVXqAbw3SVs5vATz34QF+K0C2bqcF8OpERtoBfWuYtnB+G+AZSw/wWwCydRttgOdpOYBvDdMWzm8DvIwRNa3nwRmCUa9gYQU8M94AVi+wotZjBbzmjgs5px0LTjLCsNNyV1bAK+pGG4TDAzNkHT2zATvg1bnMSw9kPSGLVJcl8Kw8A/CRIOzZFkvg1cGsLQf0PUGLUpct8DKAxtj3XlCS1WMJNCPhtwZeHS+l73V/XvWwaizAA3ynWxL7Olq/6VtfyNP5WS0W2Pf5YK/99go/7WjdIrv0fXqdj1tvgD71s5HvAX6WXWjBSY3IOzfN1/E6DwtFAvtIwOd1A/wM+GkH6YEbPWVXC7/KqTzLRgH51I8ivQf4A8BPDaVJNHRVX+m55sjThJPa6rP2s4gEkE/9Jep7gK8EPqoBaReBZo0PADzA8+CKkQ8AvJGx1ygBZXNmDgAP8Ci8kQ8AvJGxUe2cqr3GrgAP8Ci8kQ8AvJGx1ygBZXNmAwAP8Ci8kQ8AvJGxUe2cqr3GrgAP8Ci8kQ8AvJGx1ygBZXNmAwAP8Ci8kQ8AvJGxUe2cqr3GrgAP8Ci8kQ8AvJGx1ygBZXNmAwAP8Ci8kQ8AvJGxUe2cqr3GrgAP8Ci8kQ8AvJGx1ygBZXNmAwAP8Ci8kQ8AvJGxUe2cqr3GrgAP8Ci8kQ8AvJGx1ygBZXNmAwAP8Ci8kQ8AvJGxUe2cqr3GrgAP8Ci8kQ8AvJGx1ygBZXNmAwAP8Ci8kQ8AvJGxUe2cqr3Grl2AVyW86AN8IIYPXF/d2tW8bujv8b2bd2sKU6auU+kn+imqDwB8ZWSMakDaRXBZ4wMAD/BVqeAap6Js3CAE8AAP8EY+APBGxkZ54ypvL9sAPMCj8EY+APBGxu6lItQTN5MAeIBH4Y18AOCNjI3yxlXeXrYBeIBH4Y184F+fcwcD0El1UgAAAABJRU5ErkJggg==;sketch=1;" vertex="1" parent="1">
          <mxGeometry x="183" y="-797" width="27" height="27" as="geometry" />
        </mxCell>
        <mxCell id="IcHQME0wc7mABGmGH1MC-84" value="" style="shape=image;verticalLabelPosition=bottom;labelBackgroundColor=#ffffff;verticalAlign=top;aspect=fixed;imageAspect=0;image=data:image/png,iVBORw0KGgoAAAANSUhEUgAAAPwAAAD8CAYAAABTq8lnAAAN1UlEQVR4Ae2dwaocRRSG8ywJ2Qm+ik/ga8SFYPY+QOAqCEHXbly5j8FFVsEbULIJiYQEg6gbXWTkTyhp2p6Z6pmpqtPn/y4MPdO3uqumzvnOf6a7uurGDf7oAXrAqwce37t5l5dfHzz54uZn2N3L7u8im4x+fXVrx4s+wAdy+wDAE+gI9EY+APBGxka9c6t3jX0BHuBReCMfAHgjY9coAGVyZwEAD/AovJEPALyRsVHv3OpdY1+AB3gU3sgHAN7I2DUKQJncWQDAAzwKb+QDAG9kbNQ7t3rX2Pck4F89+GTHiz7AB+L4QA3sKnMy8Lvfn+940Qf4wHgfUOAFeAISAdnEBwDexNCo63h1jWADgAd41N3IBwDeyNgRFIY2jM00AB7gUXgjHwB4I2OjrmPVNUL/AzzAo/BGPgDwRsaOoDC0YWyWAfAAj8Ib+QDAGxkbdR2rrhH6H+ABHoU38gGANzJ2BIWhDWOzDIAHeBTeyAcA3sjYqOtYdY3Q/wAP8Ci8kQ8AvJGxIygMbRibZQA8wKPwRj4A8EbGRl3HqmuE/gd4gEfhjXwA4I2MHUFhaMPYLAPgAR6FN/IBgDcyNuo6Vl0j9D/AAzwKb+QDAG9k7AgKQxvGZhkAD/AovJEPALyRsVHXseoaof8BHuBReCMfAHgjY0dQGNowNssAeIBH4Y18AOCNjI26jlXXCP0P8ACPwhv5AMAbGTuCwtCGsVkGwAM8Cm/kAwBvZGzUday6Ruh/gAd4FL7SB/7+9cfdn0++2b159Pnu9cNPd68e3Hm31Wft1/8jQH2oDQBfaexDncj/8irnHz99tXvx/ce7X77+cHd9devoS+VUXsdF9AuAB/iQjjkSlre/Pd29/uHTasj3BQLBr/O8ffM0TB8DPMCHccaRkJe6lZ7/fP+Do0q+D/Kl/TqfzlvqGLkFeIAP4YgjIVDd/7x8tHv23UcXBX0Ov86vekZ+V4AH+KEOONL5S91//fLt2en7HO59n5Xmq75Sd+8twAP8MOfr7exL9enq+pMvbzdV9jn8qk/1LrWn9T6AB/ghjtfasWvOL6XtDXuBX/WOUHqAB3hL4PVbuvZWW4H00lvV3/s3PcADvCXwrS/Q1QYHtaMmG7lUGYAH+K4OdynHPec8ukVWC2SPcj1v2QE8wFsBr0Ewl77Pfm5QUHs02OecIFZ7LMADfBdHq3XI1uU08u1cQFscr3a1/u46P8ADfBdH6+HMNXWMvlC3L1ioXTXtP7cMwAN8F0c711EvcbweaNkHXIT9PR64AXiAtwFeT7FFAHtfG9S+SwS2Q+cAeIBv7mSHHLDn/6Km8yUA9EjrAR7gLYDX5BQFrMjb1pNoADzAWwCvseuRQS9taz3GHuAB3gL4aINtCuDzbetBOAAP8BbAaw66OVwRP6udLa9rADzAN3Wwls675tyacDIi4PM2qZ1rvtfasgAP8E0dbK1DtiqPwr+faBTgAd4CeH7DA7yFo7dSzK2dl6v0AA/wRtkN9+EBHuCNgFdGwkg7npYDeiPoGUsP8ABvBDxPywE8wBsBHzmt7/HgjL4/t+XMHH5rV9cv3V5mvPmkegDSDf09vnfz7nx00KHPiiiXNhrne3/FlX5Y3w+aOy7knHadFpxE4VF4u4AcbRBO6wdmpsIA8ABvB7wAYF7642vdk9ITHNIEB1aeAfg0zjxN4Xi//3c+a8sdhh6FR+HTBUWNse+9oCSrxwJSOpC2lFlI6XsNu1U9I1aNLfbgoh3BhmDz+/N3q7i2vpCn8/deLbaAXrYAD/AAP/EB3SK79H16na/nrbcC99IW4CfGXuog9u2/6JW1b7TgpEbknZvm63idp9dCkTX2AHiAR+EP+IAeuNFTdrXwq5zK91g2qgbweRmAP2DseWfx2U/tpzbXJBq6qq/0XHPkacJJbfVZ+1svIjFty6nvAR7gUXgjHwB4I2OfqgoclyezAXiAR+GNfADgjYyNUudR6lNtCfAAj8Ib+QDAGxn7VFXguDyZAcADPApv5AMAb2RslDqPUp9qS4AHeBTeyAcA3sjYp6oCx+XJDAAe4FF4Ix8AeCNjo9R5lPpUWwI8wKPwRj4A8EbGPlUVOC5PZgDwAL+o8BkeBSVQ/T9QATzA/wd8tskeAB7g/3NunOG9M2j6pYtO59RpjTTs93+Ya/oEhTdW+OwTNtYA4FYG4A2B11TJDlMyu8Fc830B3gx4p0UXagBwKwPwRsC7LavkBnPN9wV4E+AdF06sAcCtDMAbAO+6NLIbzDXfF+ANgG99ge766vCyw+X/akeNU1LmtFtuNf0G8MmB1623AlyErdpT45iUaQM9wCcGXmukXXphxHODhtoTaa01t8AC8ImB1wi6cwFtcbza5QZalO8L8ImBr10AsQXUh86pdkUBwK0dAJ8UeD0Icwi60f+Lurpq9gAA8EmB15LFo6E+VL/alx2uiN8P4JMCHzWdL0GAtL7NVfhjQQbgEwKvySsKWJG3W1hP/RhAW/s/wCcEXmPmI4Ne2qZ2bg2YrbcX4BMCH22wTQF8vmUQTv+0HuATAv/6Ycz773Pg1c6tK+bW2g/wCYF/9eDOJlJ6tXNrwGy9vQCfEHgUvn+qvJVAAPAJgec3PMDvC0AAnxB4rtIDPMAnBHufUbkPD/D7fAOFTxoIGGkH9EvQA3xS4BlLD/AAnxTuJcPytBzAL/kFCp84CERN63lwZlwwAvjEwDPjzTiwltQ1wj6ATwy85o4LOacdC04OG2EI8ImBl6JEG4TDAzNjsw6ATw68oGde+rGQRUjlSxsA3gB4Vp4BeIA3AL0YWVvWlgN6+QEKbwQ+q8cCPcAbAV+Uvtf9edWjzGKaafB+bNABeDPgBZx+07e+kKfzqx4AHwv4vP8B3hD44gS6RXbp+/Q6H7feYkFe7K0twBsDLwfQgpMakXdumq/jdR4WiowLO8Cbwz6N/HqvB270lF0t/Cqn8iwbFRvyqZ1ReKBf/J2tSTR0VV/puebI04ST2uqz9rOIxHYgB3ggX4R86hi83ybQx+yGwgM/8Bv5AMAbGftY9Of/OVV9aleAB3gU3sgHAN7I2NNIz/v8ar5kY4AHeBTeyAcA3sjYSxGffV5KD/AAj8Ib+QDAGxkbNfdS8yV7AzzAo/BGPgDwRsZeivjs81J9gAd4FN7IBwDeyNiouZeaL9kb4AEehTfyAYA3MvZSxGefl+oDPMCj8EY+APBGxkbNvdR8yd4AD/AovJEPALyRsZciPvu8VB/gAR6FN/IBgK80NpM6eilh1swH4A8Az7TNQJ4NfICfAa+FFC66MMObp6TMsz7OBtGWvg/AT5yRpZdQ9C3Be0pbAZ7FFclAJkH/FIi2dIw98FrOuHZppeurW7tzXqqH5ZPJIkYGCGvgtWTSky9vnwXx2gCg+lTvSKNTt2/QsQVeStsb9hIcVC9K7wvdyIBrCfw/Lx91S+ML5POt0nu1Y6Txqdsv6FgC/+y7j7qm8XPYy2e1A+j8oBtpczvgdeutABdhq/aMdADq9go4VsC/ffN09/P9D0IBr/ZosA/geYE3yt5WwGsEXQRVn7dB7RrlANTrFWisgO91v30O9LHPahfgeYE3yt42wOtBmGPgjfy/2jfKCajXJ9jYAP/i+49DA6/2AZ4PeKNsbQN81HS+ZBWk9cDeIwhYAK/JKwpYkbdqZw+jU4dvcLEAXmPXI4Ne2sYYe18QewVhC+CjDbYpgM+3DMIB+NbgWwD/+mHM++9z4NXO1gbn/N5BxQL4Vw/ubCKlVzsB0hvI1va3AB6FB6LWIG3l/BbA8xse4LcCZOt2WgDPVXqAbw3SVs5vATz34QF+K0C2bqcF8OpERtoBfWuYtnB+G+AZSw/wWwCydRttgOdpOYBvDdMWzm8DvIwRNa3nwRmCUa9gYQU8M94AVi+wotZjBbzmjgs5px0LTjLCsNNyV1bAK+pGG4TDAzNkHT2zATvg1bnMSw9kPSGLVJcl8Kw8A/CRIOzZFkvg1cGsLQf0PUGLUpct8DKAxtj3XlCS1WMJNCPhtwZeHS+l73V/XvWwaizAA3ynWxL7Olq/6VtfyNP5WS0W2Pf5YK/99go/7WjdIrv0fXqdj1tvgD71s5HvAX6WXWjBSY3IOzfN1/E6DwtFAvtIwOd1A/wM+GkH6YEbPWVXC7/KqTzLRgH51I8ivQf4A8BPDaVJNHRVX+m55sjThJPa6rP2s4gEkE/9Jep7gK8EPqoBaReBZo0PADzA8+CKkQ8AvJGx1ygBZXNmDgAP8Ci8kQ8AvJGxUe2cqr3GrgAP8Ci8kQ8AvJGx1ygBZXNmAwAP8Ci8kQ8AvJGxUe2cqr3GrgAP8Ci8kQ8AvJGx1ygBZXNmAwAP8Ci8kQ8AvJGxUe2cqr3GrgAP8Ci8kQ8AvJGx1ygBZXNmAwAP8Ci8kQ8AvJGxUe2cqr3GrgAP8Ci8kQ8AvJGx1ygBZXNmAwAP8Ci8kQ8AvJGxUe2cqr3GrgAP8Ci8kQ8AvJGx1ygBZXNmAwAP8Ci8kQ8AvJGxUe2cqr3GrgAP8Ci8kQ8AvJGx1ygBZXNmAwAP8Ci8kQ8AvJGxUe2cqr3Grl2AVyW86AN8IIYPXF/d2tW8bujv8b2bd2sKU6auU+kn+imqDwB8ZWSMakDaRXBZ4wMAD/BVqeAap6Js3CAE8AAP8EY+APBGxkZ54ypvL9sAPMCj8EY+APBGxu6lItQTN5MAeIBH4Y18AOCNjI3yxlXeXrYBeIBH4Y184F+fcwcD0El1UgAAAABJRU5ErkJggg==;sketch=1;" vertex="1" parent="1">
          <mxGeometry x="773" y="-617" width="27" height="27" as="geometry" />
        </mxCell>
        <mxCell id="IcHQME0wc7mABGmGH1MC-85" value="" style="shape=image;verticalLabelPosition=bottom;labelBackgroundColor=#ffffff;verticalAlign=top;aspect=fixed;imageAspect=0;image=data:image/png,iVBORw0KGgoAAAANSUhEUgAAAPwAAAD8CAYAAABTq8lnAAAN1UlEQVR4Ae2dwaocRRSG8ywJ2Qm+ik/ga8SFYPY+QOAqCEHXbly5j8FFVsEbULIJiYQEg6gbXWTkTyhp2p6Z6pmpqtPn/y4MPdO3uqumzvnOf6a7uurGDf7oAXrAqwce37t5l5dfHzz54uZn2N3L7u8im4x+fXVrx4s+wAdy+wDAE+gI9EY+APBGxka9c6t3jX0BHuBReCMfAHgjY9coAGVyZwEAD/AovJEPALyRsVHv3OpdY1+AB3gU3sgHAN7I2DUKQJncWQDAAzwKb+QDAG9kbNQ7t3rX2Pck4F89+GTHiz7AB+L4QA3sKnMy8Lvfn+940Qf4wHgfUOAFeAISAdnEBwDexNCo63h1jWADgAd41N3IBwDeyNgRFIY2jM00AB7gUXgjHwB4I2OjrmPVNUL/AzzAo/BGPgDwRsaOoDC0YWyWAfAAj8Ib+QDAGxkbdR2rrhH6H+ABHoU38gGANzJ2BIWhDWOzDIAHeBTeyAcA3sjYqOtYdY3Q/wAP8Ci8kQ8AvJGxIygMbRibZQA8wKPwRj4A8EbGRl3HqmuE/gd4gEfhjXwA4I2MHUFhaMPYLAPgAR6FN/IBgDcyNuo6Vl0j9D/AAzwKb+QDAG9k7AgKQxvGZhkAD/AovJEPALyRsVHXseoaof8BHuBReCMfAHgjY0dQGNowNssAeIBH4Y18AOCNjI26jlXXCP0P8ACPwhv5AMAbGTuCwtCGsVkGwAM8Cm/kAwBvZGzUday6Ruh/gAd4FL7SB/7+9cfdn0++2b159Pnu9cNPd68e3Hm31Wft1/8jQH2oDQBfaexDncj/8irnHz99tXvx/ce7X77+cHd9devoS+VUXsdF9AuAB/iQjjkSlre/Pd29/uHTasj3BQLBr/O8ffM0TB8DPMCHccaRkJe6lZ7/fP+Do0q+D/Kl/TqfzlvqGLkFeIAP4YgjIVDd/7x8tHv23UcXBX0Ov86vekZ+V4AH+KEOONL5S91//fLt2en7HO59n5Xmq75Sd+8twAP8MOfr7exL9enq+pMvbzdV9jn8qk/1LrWn9T6AB/ghjtfasWvOL6XtDXuBX/WOUHqAB3hL4PVbuvZWW4H00lvV3/s3PcADvCXwrS/Q1QYHtaMmG7lUGYAH+K4OdynHPec8ukVWC2SPcj1v2QE8wFsBr0Ewl77Pfm5QUHs02OecIFZ7LMADfBdHq3XI1uU08u1cQFscr3a1/u46P8ADfBdH6+HMNXWMvlC3L1ioXTXtP7cMwAN8F0c711EvcbweaNkHXIT9PR64AXiAtwFeT7FFAHtfG9S+SwS2Q+cAeIBv7mSHHLDn/6Km8yUA9EjrAR7gLYDX5BQFrMjb1pNoADzAWwCvseuRQS9taz3GHuAB3gL4aINtCuDzbetBOAAP8BbAaw66OVwRP6udLa9rADzAN3Wwls675tyacDIi4PM2qZ1rvtfasgAP8E0dbK1DtiqPwr+faBTgAd4CeH7DA7yFo7dSzK2dl6v0AA/wRtkN9+EBHuCNgFdGwkg7npYDeiPoGUsP8ABvBDxPywE8wBsBHzmt7/HgjL4/t+XMHH5rV9cv3V5mvPmkegDSDf09vnfz7nx00KHPiiiXNhrne3/FlX5Y3w+aOy7knHadFpxE4VF4u4AcbRBO6wdmpsIA8ABvB7wAYF7642vdk9ITHNIEB1aeAfg0zjxN4Xi//3c+a8sdhh6FR+HTBUWNse+9oCSrxwJSOpC2lFlI6XsNu1U9I1aNLfbgoh3BhmDz+/N3q7i2vpCn8/deLbaAXrYAD/AAP/EB3SK79H16na/nrbcC99IW4CfGXuog9u2/6JW1b7TgpEbknZvm63idp9dCkTX2AHiAR+EP+IAeuNFTdrXwq5zK91g2qgbweRmAP2DseWfx2U/tpzbXJBq6qq/0XHPkacJJbfVZ+1svIjFty6nvAR7gUXgjHwB4I2OfqgoclyezAXiAR+GNfADgjYyNUudR6lNtCfAAj8Ib+QDAGxn7VFXguDyZAcADPApv5AMAb2RslDqPUp9qS4AHeBTeyAcA3sjYp6oCx+XJDAAe4FF4Ix8AeCNjo9R5lPpUWwI8wKPwRj4A8EbGPlUVOC5PZgDwAL+o8BkeBSVQ/T9QATzA/wd8tskeAB7g/3NunOG9M2j6pYtO59RpjTTs93+Ya/oEhTdW+OwTNtYA4FYG4A2B11TJDlMyu8Fc830B3gx4p0UXagBwKwPwRsC7LavkBnPN9wV4E+AdF06sAcCtDMAbAO+6NLIbzDXfF+ANgG99ge766vCyw+X/akeNU1LmtFtuNf0G8MmB1623AlyErdpT45iUaQM9wCcGXmukXXphxHODhtoTaa01t8AC8ImB1wi6cwFtcbza5QZalO8L8ImBr10AsQXUh86pdkUBwK0dAJ8UeD0Icwi60f+Lurpq9gAA8EmB15LFo6E+VL/alx2uiN8P4JMCHzWdL0GAtL7NVfhjQQbgEwKvySsKWJG3W1hP/RhAW/s/wCcEXmPmI4Ne2qZ2bg2YrbcX4BMCH22wTQF8vmUQTv+0HuATAv/6Ycz773Pg1c6tK+bW2g/wCYF/9eDOJlJ6tXNrwGy9vQCfEHgUvn+qvJVAAPAJgec3PMDvC0AAnxB4rtIDPMAnBHufUbkPD/D7fAOFTxoIGGkH9EvQA3xS4BlLD/AAnxTuJcPytBzAL/kFCp84CERN63lwZlwwAvjEwDPjzTiwltQ1wj6ATwy85o4LOacdC04OG2EI8ImBl6JEG4TDAzNjsw6ATw68oGde+rGQRUjlSxsA3gB4Vp4BeIA3AL0YWVvWlgN6+QEKbwQ+q8cCPcAbAV+Uvtf9edWjzGKaafB+bNABeDPgBZx+07e+kKfzqx4AHwv4vP8B3hD44gS6RXbp+/Q6H7feYkFe7K0twBsDLwfQgpMakXdumq/jdR4WiowLO8Cbwz6N/HqvB270lF0t/Cqn8iwbFRvyqZ1ReKBf/J2tSTR0VV/puebI04ST2uqz9rOIxHYgB3ggX4R86hi83ybQx+yGwgM/8Bv5AMAbGftY9Of/OVV9aleAB3gU3sgHAN7I2NNIz/v8ar5kY4AHeBTeyAcA3sjYSxGffV5KD/AAj8Ib+QDAGxkbNfdS8yV7AzzAo/BGPgDwRsZeivjs81J9gAd4FN7IBwDeyNiouZeaL9kb4AEehTfyAYA3MvZSxGefl+oDPMCj8EY+APBGxkbNvdR8yd4AD/AovJEPALyRsZciPvu8VB/gAR6FN/IBgK80NpM6eilh1swH4A8Az7TNQJ4NfICfAa+FFC66MMObp6TMsz7OBtGWvg/AT5yRpZdQ9C3Be0pbAZ7FFclAJkH/FIi2dIw98FrOuHZppeurW7tzXqqH5ZPJIkYGCGvgtWTSky9vnwXx2gCg+lTvSKNTt2/QsQVeStsb9hIcVC9K7wvdyIBrCfw/Lx91S+ML5POt0nu1Y6Txqdsv6FgC/+y7j7qm8XPYy2e1A+j8oBtpczvgdeutABdhq/aMdADq9go4VsC/ffN09/P9D0IBr/ZosA/geYE3yt5WwGsEXQRVn7dB7RrlANTrFWisgO91v30O9LHPahfgeYE3yt42wOtBmGPgjfy/2jfKCajXJ9jYAP/i+49DA6/2AZ4PeKNsbQN81HS+ZBWk9cDeIwhYAK/JKwpYkbdqZw+jU4dvcLEAXmPXI4Ne2sYYe18QewVhC+CjDbYpgM+3DMIB+NbgWwD/+mHM++9z4NXO1gbn/N5BxQL4Vw/ubCKlVzsB0hvI1va3AB6FB6LWIG3l/BbA8xse4LcCZOt2WgDPVXqAbw3SVs5vATz34QF+K0C2bqcF8OpERtoBfWuYtnB+G+AZSw/wWwCydRttgOdpOYBvDdMWzm8DvIwRNa3nwRmCUa9gYQU8M94AVi+wotZjBbzmjgs5px0LTjLCsNNyV1bAK+pGG4TDAzNkHT2zATvg1bnMSw9kPSGLVJcl8Kw8A/CRIOzZFkvg1cGsLQf0PUGLUpct8DKAxtj3XlCS1WMJNCPhtwZeHS+l73V/XvWwaizAA3ynWxL7Olq/6VtfyNP5WS0W2Pf5YK/99go/7WjdIrv0fXqdj1tvgD71s5HvAX6WXWjBSY3IOzfN1/E6DwtFAvtIwOd1A/wM+GkH6YEbPWVXC7/KqTzLRgH51I8ivQf4A8BPDaVJNHRVX+m55sjThJPa6rP2s4gEkE/9Jep7gK8EPqoBaReBZo0PADzA8+CKkQ8AvJGx1ygBZXNmDgAP8Ci8kQ8AvJGxUe2cqr3GrgAP8Ci8kQ8AvJGx1ygBZXNmAwAP8Ci8kQ8AvJGxUe2cqr3GrgAP8Ci8kQ8AvJGx1ygBZXNmAwAP8Ci8kQ8AvJGxUe2cqr3GrgAP8Ci8kQ8AvJGx1ygBZXNmAwAP8Ci8kQ8AvJGxUe2cqr3GrgAP8Ci8kQ8AvJGx1ygBZXNmAwAP8Ci8kQ8AvJGxUe2cqr3GrgAP8Ci8kQ8AvJGx1ygBZXNmAwAP8Ci8kQ8AvJGxUe2cqr3GrgAP8Ci8kQ8AvJGx1ygBZXNmAwAP8Ci8kQ8AvJGxUe2cqr3Grl2AVyW86AN8IIYPXF/d2tW8bujv8b2bd2sKU6auU+kn+imqDwB8ZWSMakDaRXBZ4wMAD/BVqeAap6Js3CAE8AAP8EY+APBGxkZ54ypvL9sAPMCj8EY+APBGxu6lItQTN5MAeIBH4Y18AOCNjI3yxlXeXrYBeIBH4Y184F+fcwcD0El1UgAAAABJRU5ErkJggg==;sketch=1;" vertex="1" parent="1">
          <mxGeometry x="683" y="-1006" width="27" height="27" as="geometry" />
        </mxCell>
      </root>
    </mxGraphModel>
  </diagram>
</mxfile>
